<svg width="219" height="388" viewBox="0 0 219 388" fill="none" xmlns="http://www.w3.org/2000/svg">
<path d="M26.3855 388L0 332.874C17.4145 325.454 33.7735 316.443 48.5494 305.311C20.5807 263.967 4.7494 208.842 4.7494 146.825C4.7494 52.4754 46.9663 0 110.292 0C170.978 0 210.557 47.7049 210.557 129.333C210.557 192.94 186.81 255.486 145.648 304.251C162.535 315.383 181.533 321.213 202.641 321.213H219V388H198.947C158.313 388 122.429 375.279 92.8771 353.016C72.8241 367.328 50.6602 379.519 26.3855 388ZM75.4626 142.055C75.4626 183.929 84.4337 222.093 100.265 252.306C125.595 216.262 139.843 173.858 139.843 129.333C139.843 88.5191 128.234 66.7869 109.236 66.7869C88.6554 66.7869 75.4626 90.6393 75.4626 142.055Z" fill="#E9EBEC"/>
</svg>
