<svg width="40" height="40" viewBox="0 0 40 40" fill="none" xmlns="http://www.w3.org/2000/svg">
<path d="M26.6666 10.0001V12.5001C26.6666 12.9603 27.0397 13.3334 27.5 13.3334H30M26.6666 10.0001V7.50008C26.6666 7.03984 27.0397 6.66675 27.5 6.66675H32.5C32.9602 6.66675 33.3333 7.03984 33.3333 7.50008V12.5001C33.3333 12.9603 32.9602 13.3334 32.5 13.3334H30M26.6666 10.0001H13.3333M9.99996 13.3334V26.6667M13.3333 30.0001H16.6666M30 13.3334V16.6667M7.49996 33.3334H12.5C12.9602 33.3334 13.3333 32.9603 13.3333 32.5001V27.5001C13.3333 27.0398 12.9602 26.6667 12.5 26.6667H7.49996C7.03972 26.6667 6.66663 27.0398 6.66663 27.5001V32.5001C6.66663 32.9603 7.03972 33.3334 7.49996 33.3334ZM7.49996 13.3334H12.5C12.9602 13.3334 13.3333 12.9603 13.3333 12.5001V7.50008C13.3333 7.03984 12.9602 6.66675 12.5 6.66675H7.49996C7.03972 6.66675 6.66663 7.03984 6.66663 7.50008V12.5001C6.66663 12.9603 7.03972 13.3334 7.49996 13.3334ZM21.6666 21.6667L33.3333 25.0001L27.9166 27.9167L25 33.3334L21.6666 21.6667Z" stroke="#131416" stroke-width="2" stroke-linecap="round" stroke-linejoin="round"/>
</svg>
