<svg width="20" height="20" viewBox="0 0 20 20" fill="none" xmlns="http://www.w3.org/2000/svg">
<path fill-rule="evenodd" clip-rule="evenodd" d="M4.64498 2.70838C4.65225 2.70838 4.65953 2.70838 4.66683 2.70838H7.91683C8.26201 2.70838 8.54183 2.9882 8.54183 3.33338C8.54183 3.67855 8.26201 3.95838 7.91683 3.95838H4.66683C4.42316 3.95838 4.278 3.95886 4.17039 3.96765C4.10472 3.97302 4.07712 3.9801 4.06972 3.9824C4.03252 4.002 4.00212 4.0324 3.98252 4.0696C3.98022 4.07699 3.97314 4.1046 3.96778 4.17027C3.95898 4.27788 3.9585 4.42304 3.9585 4.66671V15.75C3.9585 15.9937 3.95898 16.1389 3.96778 16.2465C3.97314 16.3122 3.98022 16.3398 3.98252 16.3472C4.00212 16.3844 4.03252 16.4148 4.06972 16.4344C4.07711 16.4367 4.10472 16.4437 4.17039 16.4491C4.278 16.4579 4.42316 16.4584 4.66683 16.4584H15.7502C15.9938 16.4584 16.139 16.4579 16.2466 16.4491C16.3123 16.4437 16.3399 16.4366 16.3473 16.4344C16.3845 16.4148 16.4149 16.3844 16.4345 16.3472C16.4368 16.3398 16.4439 16.3121 16.4492 16.2465C16.458 16.1389 16.4585 15.9937 16.4585 15.75V12.5C16.4585 12.1549 16.7383 11.875 17.0835 11.875C17.4287 11.875 17.7085 12.1549 17.7085 12.5V15.7719C17.7085 15.9865 17.7085 16.1835 17.6951 16.3483C17.6806 16.5259 17.6473 16.7202 17.5495 16.9121C17.4097 17.1865 17.1866 17.4096 16.9122 17.5494C16.7203 17.6472 16.526 17.6804 16.3484 17.6949C16.1837 17.7084 15.9866 17.7084 15.772 17.7084H4.64497C4.4304 17.7084 4.23334 17.7084 4.0686 17.6949C3.89099 17.6804 3.69668 17.6472 3.50476 17.5494C3.23036 17.4096 3.00726 17.1865 2.86745 16.9121C2.76966 16.7202 2.73644 16.5259 2.72193 16.3483C2.70847 16.1835 2.70848 15.9865 2.7085 15.7719L2.7085 4.66671C2.7085 4.65941 2.7085 4.65212 2.7085 4.64486C2.70848 4.43029 2.70847 4.23322 2.72193 4.06848C2.73644 3.89087 2.76966 3.69656 2.86745 3.50464C3.00726 3.23024 3.23036 3.00714 3.50476 2.86732C3.69668 2.76954 3.89099 2.73632 4.0686 2.72181C4.23334 2.70835 4.43041 2.70836 4.64498 2.70838ZM16.3494 16.4336L16.3482 16.4341L16.3494 16.4336ZM4.06756 16.4336L4.0688 16.4341L4.06756 16.4336ZM3.98327 16.3493L3.98281 16.3481L3.98327 16.3493ZM3.98327 4.06744L3.9828 4.0687L3.98327 4.06744ZM4.06882 3.98268L4.06756 3.98315L4.06882 3.98268ZM11.0418 3.33338C11.0418 2.9882 11.3217 2.70838 11.6668 2.70838H17.0835C17.4287 2.70838 17.7085 2.9882 17.7085 3.33338V8.75004C17.7085 9.09522 17.4287 9.37504 17.0835 9.37504C16.7383 9.37504 16.4585 9.09522 16.4585 8.75004V4.84226L9.81711 11.4837C9.57303 11.7277 9.1773 11.7277 8.93322 11.4837C8.68915 11.2396 8.68915 10.8438 8.93322 10.5998L15.5746 3.95838H11.6668C11.3217 3.95838 11.0418 3.67855 11.0418 3.33338Z" fill="#E9EBEC"/>
</svg>
