<svg width="137" height="32" viewBox="0 0 137 32" fill="none" xmlns="http://www.w3.org/2000/svg">
<path d="M117.914 30.9653H111.117V8.22651H117.415V15.2161H117.823C118.412 11.4036 121.131 7.77264 127.066 7.77264C133.273 7.77264 136.218 11.7667 136.218 16.8046V30.9653H129.422V19.074C129.422 15.443 127.927 13.8999 123.759 13.8999C119.454 13.8999 117.914 15.6246 117.914 19.4824V30.9653Z" fill="#E9EBEC"/>
<path d="M96.6953 31.4057C88.95 31.4057 83.7412 26.7789 83.7412 19.6118C83.7412 12.3541 88.95 7.77264 96.6953 7.77264C104.441 7.77264 109.649 12.3541 109.649 19.6118C109.649 26.7789 104.441 31.4057 96.6953 31.4057ZM96.6953 25.3727C101.27 25.3727 102.901 23.6036 102.901 19.6118C102.901 15.6201 101.27 13.7603 96.6953 13.7603C92.0753 13.7603 90.49 15.6201 90.49 19.6118C90.49 23.6036 92.0753 25.3727 96.6953 25.3727Z" fill="#E9EBEC"/>
<path d="M68.0489 30.9653L65.9797 26.6483C67.3454 26.0672 68.6283 25.3615 69.7871 24.4898C67.5937 21.252 66.3522 16.935 66.3522 12.0783C66.3522 4.68951 69.6629 0.580017 74.629 0.580017C79.3881 0.580017 82.4919 4.31592 82.4919 10.7085C82.4919 15.6897 80.6296 20.5878 77.4017 24.4068C78.726 25.2785 80.2158 25.7351 81.8712 25.7351H83.154V30.9653H81.5815C78.3949 30.9653 75.5808 29.9691 73.2633 28.2257C71.6907 29.3464 69.9526 30.3012 68.0489 30.9653ZM71.8976 11.7047C71.8976 14.984 72.6012 17.9727 73.8427 20.3388C75.8291 17.5161 76.9465 14.1953 76.9465 10.7085C76.9465 7.51219 76.036 5.81028 74.5462 5.81028C72.9322 5.81028 71.8976 7.67823 71.8976 11.7047Z" fill="#E9EBEC"/>
<path d="M52.7977 31.4057C45.2345 31.4057 40.0715 27.6861 40.0715 19.6118C40.0715 12.3541 45.1892 7.77264 52.6618 7.77264C60.0892 7.77264 65.0257 11.6737 65.0257 18.7953C65.0257 19.6118 64.9351 20.2015 64.8445 20.9727H46.3667C46.5478 24.4655 48.1782 25.9624 52.5712 25.9624C56.6019 25.9624 58.0059 24.9191 58.0059 22.9685V22.5149H64.7992V23.0139C64.7992 27.9582 59.9986 31.4057 52.7977 31.4057ZM52.526 13.0799C48.4952 13.0799 46.7743 14.4407 46.4573 17.3892H58.5041C58.3229 14.3953 56.5114 13.0799 52.526 13.0799Z" fill="#E9EBEC"/>
<path d="M6.80253 30.9653H-0.00219727V0.580017H9.20687L16.3292 15.5459L19.1871 22.6661H19.6862L22.4534 15.5459L29.3489 0.580017H38.6033V30.9653H31.7986V15.5459L32.0254 10.784H31.5264L29.7572 15.5459L23.4061 29.1513H15.1497L8.79859 15.5459L7.02936 10.784H6.53035L6.80253 15.5459V30.9653Z" fill="#E9EBEC"/>
</svg>
