<svg width="24" height="24" viewBox="0 0 24 24" fill="none" xmlns="http://www.w3.org/2000/svg">
<path fill-rule="evenodd" clip-rule="evenodd" d="M4 3.75C4 3.33579 4.33579 3 4.75 3H15.25C15.6642 3 16 3.33579 16 3.75V18.4393L18.7197 15.7197C19.0126 15.4268 19.4874 15.4268 19.7803 15.7197C20.0732 16.0126 20.0732 16.4874 19.7803 16.7803L15.7803 20.7803C15.4874 21.0732 15.0126 21.0732 14.7197 20.7803L10.7197 16.7803C10.4268 16.4874 10.4268 16.0126 10.7197 15.7197C11.0126 15.4268 11.4874 15.4268 11.7803 15.7197L14.5 18.4393V4.5H4.75C4.33579 4.5 4 4.16421 4 3.75Z" fill="#CED2D4"/>
</svg>
