<svg width="256" height="256" viewBox="0 0 256 256" fill="none" xmlns="http://www.w3.org/2000/svg">
<rect width="256" height="256" fill="#1D1F21"/>
<path d="M199.689 172.454C174.7 172.454 157.895 157.527 157.895 134.403C157.895 110.987 174.7 96.2059 199.689 96.2059C224.678 96.2059 241.484 110.987 241.484 134.403C241.484 157.527 224.678 172.454 199.689 172.454ZM199.689 152.99C214.449 152.99 219.709 147.282 219.709 134.403C219.709 121.524 214.449 115.524 199.689 115.524C184.783 115.524 179.669 121.524 179.669 134.403C179.669 147.282 184.783 152.99 199.689 152.99Z" fill="#E9EBEC"/>
<path d="M107.266 171.034L100.59 157.105C104.996 155.23 109.136 152.954 112.874 150.141C105.798 139.695 101.792 125.767 101.792 110.097C101.792 86.2586 112.473 73 128.496 73C143.85 73 153.864 85.0533 153.864 105.678C153.864 121.749 147.856 137.552 137.442 149.873C141.714 152.686 146.521 154.159 151.862 154.159H156.001V171.034H150.927C140.646 171.034 131.567 167.819 124.09 162.194C119.016 165.81 113.408 168.891 107.266 171.034ZM119.684 108.892C119.684 119.472 121.953 129.115 125.959 136.749C132.368 127.642 135.973 116.928 135.973 105.678C135.973 95.3656 133.035 89.8746 128.229 89.8746C123.021 89.8746 119.684 95.9013 119.684 108.892Z" fill="#E9EBEC"/>
<path d="M58.059 172.454C33.6574 172.454 17 160.454 17 134.403C17 110.987 33.5113 96.2059 57.6206 96.2059C81.5839 96.2059 97.5106 108.792 97.5106 131.769C97.5106 134.403 97.2184 136.306 96.9262 138.794H37.3103C37.8948 150.063 43.155 154.892 57.3284 154.892C70.3328 154.892 74.8625 151.526 74.8625 145.233V143.77H96.7801V145.38C96.7801 161.332 81.2916 172.454 58.059 172.454ZM57.1823 113.329C44.1778 113.329 38.6254 117.719 37.6025 127.232H76.4697C75.8853 117.573 70.0406 113.329 57.1823 113.329Z" fill="#E9EBEC"/>
</svg>
