<svg width="49" height="18" viewBox="0 0 49 18" fill="none" xmlns="http://www.w3.org/2000/svg">
<path d="M2.61499 0.212891H0V7.61715L2.61499 0.212891Z" fill="#FF00C4"/>
<path d="M0 10.3618V17.7873H2.61499L0 10.3618Z" fill="#F994FA"/>
<path d="M9.13184 0.212891H11.9129V17.7874H9.13184V0.212891Z" fill="#1A1A1A"/>
<path d="M17.8691 9.0214H17.9106V0.212891H20.2973V17.7874H17.8483L15.8974 7.51076H15.8559V17.7874H13.4692V0.212891H16.4163L17.8691 9.0214Z" fill="#1A1A1A"/>
<path d="M21.418 0.212891H26.7932V2.53204H24.1782V7.7448H26.5234V10.064H24.1782V15.4469H26.7932V17.7661H21.418V0.212891Z" fill="#1A1A1A"/>
<path d="M33.995 6.87234H31.4215V3.31915C31.4215 2.61702 31.2347 2.17021 30.7989 2.17021C30.3631 2.17021 30.197 2.59574 30.197 3.31915V5.48936C30.197 6.46808 30.4876 6.78723 31.1932 7.48936L32.5215 8.7234C33.6629 9.82979 34.0572 10.5532 34.0572 12.3404V14.4255C34.0572 16.7234 32.7913 18 30.7366 18C28.682 18 27.5198 16.7447 27.5198 14.4255V11.0426H30.114V14.6809C30.114 15.383 30.3008 15.8298 30.7366 15.8298C31.1725 15.8298 31.3385 15.4043 31.3385 14.6809V12.383C31.3385 11.4043 31.1309 11.1915 30.4046 10.5319L29.0348 9.2766C28.0386 8.31915 27.499 7.48936 27.499 5.85106V3.57447C27.499 1.2766 28.7443 0 30.8196 0C32.895 0 33.995 1.25532 33.995 3.57447V6.87234Z" fill="#1A1A1A"/>
<path d="M41.3002 6.87234H38.7267V3.31915C38.7267 2.61702 38.5399 2.17021 38.1041 2.17021C37.6682 2.17021 37.5022 2.59574 37.5022 3.31915V5.48936C37.5022 6.46808 37.7928 6.78723 38.4984 7.48936L39.8266 8.7234C40.9681 9.82979 41.3624 10.5532 41.3624 12.3404V14.4255C41.3624 16.7234 40.0964 18 38.0418 18C35.9872 18 34.825 16.7447 34.825 14.4255V11.0426H37.4192V14.6809C37.4192 15.383 37.606 15.8298 38.0418 15.8298C38.4776 15.8298 38.6437 15.4043 38.6437 14.6809V12.383C38.6437 11.4043 38.4361 11.1915 37.7097 10.5319L36.34 9.2766C35.3438 8.31915 34.8042 7.48936 34.8042 5.85106V3.57447C34.8042 1.2766 36.0494 0 38.1248 0C40.2002 0 41.3002 1.25532 41.3002 3.57447V6.87234Z" fill="#1A1A1A"/>
<path d="M48.9999 14.4465C48.9999 16.7231 47.7339 17.9784 45.617 17.9784C43.5001 17.9784 42.2134 16.7231 42.2134 14.4465V3.55291C42.2134 1.27632 43.4794 0.0209961 45.617 0.0209961C47.7547 0.0209961 48.9999 1.27632 48.9999 3.55291V14.4465ZM45.617 15.8082C46.0528 15.8082 46.2396 15.3827 46.2396 14.6593V3.31887C46.2396 2.61674 46.0528 2.16993 45.617 2.16993C45.1604 2.16993 44.9736 2.59546 44.9736 3.31887V14.6806C44.9736 15.3827 45.1604 15.8082 45.617 15.8082Z" fill="#1A1A1A"/>
<path d="M8.26007 0.212891H5.39604L2.30371 9.00012L5.39604 17.7874H8.26007L5.16775 9.00012L8.26007 0.212891Z" fill="#1A1A1A"/>
</svg>
