<?xml version="1.0" standalone="no"?>
<!DOCTYPE svg PUBLIC "-//W3C//DTD SVG 20010904//EN"
 "http://www.w3.org/TR/2001/REC-SVG-20010904/DTD/svg10.dtd">
<svg version="1.0" xmlns="http://www.w3.org/2000/svg"
 width="700.000000pt" height="700.000000pt" viewBox="0 0 700.000000 700.000000"
 preserveAspectRatio="xMidYMid meet">
<metadata>
Created by potrace 1.14, written by Peter Selinger 2001-2017
</metadata>
<g transform="translate(0.000000,700.000000) scale(0.100000,-0.100000)"
fill="#000000" stroke="none">
<path d="M0 3500 l0 -3500 3500 0 3500 0 0 3500 0 3500 -3500 0 -3500 0 0
-3500z m3665 1485 c181 -38 343 -169 429 -346 85 -176 111 -324 103 -587 -5
-204 -27 -330 -88 -515 -65 -198 -193 -436 -318 -591 -17 -21 -31 -42 -31 -46
0 -11 153 -80 212 -96 29 -8 106 -17 171 -21 l117 -6 0 -224 0 -223 -129 0
c-256 0 -486 67 -682 200 l-56 38 -84 -55 c-120 -78 -360 -195 -374 -181 -7 7
-175 358 -175 366 0 4 30 22 68 39 74 36 204 112 240 140 l22 18 -26 38 c-36
53 -117 218 -149 302 -35 94 -81 269 -101 385 -22 130 -30 471 -14 597 34 270
137 499 282 628 66 57 192 121 278 139 86 19 218 19 305 1z m-1850 -636 c464
-69 758 -334 830 -746 15 -88 20 -265 9 -347 l-7 -46 -815 0 -815 0 7 -64 c12
-118 66 -233 135 -283 98 -73 197 -97 411 -97 193 0 287 16 371 67 66 40 99
94 106 177 l6 60 293 0 294 0 0 -68 c0 -304 -251 -566 -634 -662 -169 -43
-283 -54 -485 -47 -185 6 -292 24 -426 70 -410 141 -625 471 -625 958 0 582
364 977 960 1039 95 10 279 4 385 -11z m3902 -4 c434 -69 745 -338 848 -731
44 -171 45 -396 1 -569 -97 -378 -376 -633 -796 -727 -92 -20 -130 -23 -315
-23 -191 1 -220 3 -323 27 -205 49 -373 135 -504 257 -95 89 -155 171 -208
283 -153 327 -126 760 66 1050 232 349 706 516 1231 433z"/>
<path d="M3473 4539 c-142 -30 -213 -236 -200 -584 6 -156 23 -278 58 -405 23
-86 96 -277 109 -285 10 -6 74 94 128 200 53 106 97 233 124 358 29 137 32
417 5 517 -40 147 -123 221 -224 199z"/>
<path d="M1352 3885 c-186 -42 -296 -153 -319 -321 l-6 -44 533 0 533 0 -6 48
c-20 156 -102 254 -255 303 -56 18 -96 23 -242 25 -125 3 -193 -1 -238 -11z"/>
<path d="M5252 3825 c-174 -38 -268 -123 -318 -290 -29 -93 -27 -335 3 -430
57 -182 178 -264 421 -285 117 -11 275 1 362 26 208 59 302 233 287 529 -14
270 -115 402 -345 450 -85 19 -325 18 -410 0z"/>
</g>
</svg>
