<svg width="40" height="40" viewBox="0 0 40 40" fill="none" xmlns="http://www.w3.org/2000/svg">
<path fill-rule="evenodd" clip-rule="evenodd" d="M16.2659 6.69088C15.5117 6.59899 14.715 6.76078 13.897 7.31504C12.6674 8.14823 12.0362 9.15543 11.791 10.2419C11.5405 11.3515 11.678 12.6143 12.1217 13.9482C12.9243 16.3616 14.6697 18.8279 16.4406 20.6513C18.4535 18.6339 20.4181 17.432 22.3023 17.2514C22.2108 15.6159 22.0126 14.1451 21.7486 13.0002C21.2858 10.9936 20.0724 8.9554 18.5667 7.74936C17.8202 7.15142 17.0362 6.78472 16.2659 6.69088ZM23.9776 17.371C23.8878 15.5788 23.6742 13.9331 23.3726 12.6256C22.8355 10.2971 21.4401 7.91554 19.6086 6.44854C18.6866 5.70997 17.6199 5.17684 16.4674 5.03644C15.299 4.89409 14.1009 5.16367 12.9621 5.9353C11.4007 6.99334 10.5086 8.35378 10.1652 9.87488C9.82708 11.3728 10.0357 12.9574 10.5402 14.4742C11.4524 17.217 13.3907 19.917 15.3027 21.8716C15.018 22.1964 14.7308 22.5382 14.4412 22.8971C13.7486 23.7555 13.0812 24.9707 12.5726 26.2717C12.5217 26.402 12.4721 26.5338 12.424 26.6667H2.50008C2.03984 26.6667 1.66675 27.0398 1.66675 27.5C1.66675 27.9602 2.03984 28.3333 2.50008 28.3333H11.9252C11.7648 29.0139 11.659 29.6977 11.6286 30.3538C11.568 31.661 11.802 33.022 12.7036 33.9546C13.6436 34.927 15.0837 35.2122 16.9139 34.845C19.9514 34.2356 21.7529 31.5004 22.7666 28.379C22.7715 28.3638 22.7764 28.3486 22.7813 28.3333H37.5001C37.9603 28.3333 38.3334 27.9602 38.3334 27.5C38.3334 27.0398 37.9603 26.6667 37.5001 26.6667H23.2414C23.807 24.2541 24.0332 21.6009 24.0247 19.1406C25.3007 19.6729 26.5275 21.1024 27.5994 23.7347C27.7934 24.2111 28.076 24.7089 28.551 24.9525C29.1484 25.2588 29.7012 25.0197 30.0386 24.7552C30.3569 24.5057 30.6253 24.1401 30.8465 23.7921C31.0772 23.4294 31.3038 23.0083 31.5203 22.5898C31.6207 22.3955 31.7187 22.2029 31.8146 22.0141C32.1496 21.3551 32.4606 20.7435 32.7703 20.2778C32.8904 20.0973 32.9908 19.9699 33.07 19.8839C33.1055 19.9645 33.1424 20.0882 33.17 20.2785C33.2272 20.6722 33.2167 21.1427 33.2046 21.693C33.2032 21.7538 33.2018 21.8156 33.2005 21.8783C33.1888 22.442 33.1786 23.1475 33.3484 23.7152C33.4383 24.016 33.5982 24.3511 33.8991 24.6102C34.2146 24.882 34.6031 25 35.0119 25H37.5001C37.9603 25 38.3334 24.6269 38.3334 24.1667C38.3334 23.7064 37.9603 23.3333 37.5001 23.3333H35.0119C34.9993 23.3333 34.9891 23.3329 34.9811 23.3323C34.972 23.3145 34.9592 23.2846 34.9452 23.2377C34.8642 22.9668 34.8539 22.5367 34.8668 21.9129C34.8681 21.8514 34.8696 21.7881 34.8711 21.7233C34.8835 21.2011 34.8981 20.5811 34.8194 20.039C34.7327 19.4421 34.4965 18.6663 33.7436 18.2652C33.17 17.9596 32.6166 18.1354 32.24 18.4012C31.8975 18.6429 31.6133 19.0079 31.3826 19.3548C31.0131 19.9103 30.6404 20.6444 30.2991 21.3165C30.2104 21.4913 30.1238 21.6619 30.0399 21.8241C29.8276 22.2346 29.6289 22.601 29.4401 22.8979C29.3491 23.0411 29.2693 23.1535 29.2012 23.2398C29.1831 23.2011 29.1636 23.1567 29.143 23.1062C27.8924 20.0348 26.2024 17.9237 23.9776 17.371ZM22.3566 18.9232C21.0657 19.0859 19.4987 19.9534 17.6525 21.7963C18.082 22.1655 18.492 22.4779 18.8665 22.7245C19.2508 22.9777 19.3571 23.4945 19.104 23.8789C18.8508 24.2632 18.334 24.3695 17.9496 24.1164C17.4921 23.815 17.0082 23.4433 16.5155 23.0166C16.2599 23.3094 16.0008 23.6184 15.7383 23.9437C15.2138 24.5938 14.6603 25.5645 14.2096 26.6667H21.5259C22.1389 24.2504 22.381 21.4908 22.3566 18.9232ZM21.0214 28.3333H13.6441C13.4491 29.0569 13.3239 29.7731 13.2935 30.4309C13.2413 31.5567 13.4711 32.3507 13.9019 32.7962C14.2941 33.202 15.0548 33.5181 16.586 33.2109C18.5926 32.8083 20.0562 31.0284 21.0214 28.3333ZM1.91083 17.7441C2.23626 17.4187 2.7639 17.4187 3.08934 17.7441L5.41675 20.0715L7.74416 17.7441C8.0696 17.4187 8.59723 17.4187 8.92267 17.7441C9.24811 18.0695 9.24811 18.5972 8.92267 18.9226L6.59526 21.25L8.92267 23.5774C9.24811 23.9029 9.24811 24.4305 8.92267 24.7559C8.59723 25.0814 8.0696 25.0814 7.74416 24.7559L5.41675 22.4285L3.08934 24.7559C2.7639 25.0814 2.23626 25.0814 1.91083 24.7559C1.58539 24.4305 1.58539 23.9029 1.91083 23.5774L4.23824 21.25L1.91083 18.9226C1.58539 18.5972 1.58539 18.0695 1.91083 17.7441Z" fill="#131416"/>
</svg>
