<svg width="318" height="301" viewBox="0 0 318 301" fill="none" xmlns="http://www.w3.org/2000/svg">
<path d="M162.174 301C65.7931 301 0 253.626 0 150.789C0 58.3513 65.216 0 160.443 0C255.093 0 318 49.6852 318 140.39C318 150.789 316.846 158.299 315.691 168.121H80.2214C82.5299 212.607 103.307 231.672 159.289 231.672C210.653 231.672 228.544 218.384 228.544 193.541V187.764H315.114V194.119C315.114 257.092 253.938 301 162.174 301ZM158.711 67.595C107.347 67.595 85.4156 84.9271 81.3757 122.48H234.893C232.584 84.3494 209.499 67.595 158.711 67.595Z" fill="#E9EBEC"/>
</svg>
